%TF.GenerationSoftware,KiCad,Pcbnew,7.0.5*%
%TF.CreationDate,2023-06-19T13:42:10-05:00*%
%TF.ProjectId,VoidSwitch,566f6964-5377-4697-9463-682e6b696361,rev?*%
%TF.SameCoordinates,Original*%
%TF.FileFunction,Legend,Bot*%
%TF.FilePolarity,Positive*%
%FSLAX46Y46*%
G04 Gerber Fmt 4.6, Leading zero omitted, Abs format (unit mm)*
G04 Created by KiCad (PCBNEW 7.0.5) date 2023-06-19 13:42:10*
%MOMM*%
%LPD*%
G01*
G04 APERTURE LIST*
%ADD10C,0.150000*%
%ADD11C,0.120000*%
%ADD12C,0.508000*%
G04 APERTURE END LIST*
D10*
%TO.C,GND*%
X145361904Y-102202438D02*
X145457142Y-102154819D01*
X145457142Y-102154819D02*
X145599999Y-102154819D01*
X145599999Y-102154819D02*
X145742856Y-102202438D01*
X145742856Y-102202438D02*
X145838094Y-102297676D01*
X145838094Y-102297676D02*
X145885713Y-102392914D01*
X145885713Y-102392914D02*
X145933332Y-102583390D01*
X145933332Y-102583390D02*
X145933332Y-102726247D01*
X145933332Y-102726247D02*
X145885713Y-102916723D01*
X145885713Y-102916723D02*
X145838094Y-103011961D01*
X145838094Y-103011961D02*
X145742856Y-103107200D01*
X145742856Y-103107200D02*
X145599999Y-103154819D01*
X145599999Y-103154819D02*
X145504761Y-103154819D01*
X145504761Y-103154819D02*
X145361904Y-103107200D01*
X145361904Y-103107200D02*
X145314285Y-103059580D01*
X145314285Y-103059580D02*
X145314285Y-102726247D01*
X145314285Y-102726247D02*
X145504761Y-102726247D01*
X144885713Y-103154819D02*
X144885713Y-102154819D01*
X144885713Y-102154819D02*
X144314285Y-103154819D01*
X144314285Y-103154819D02*
X144314285Y-102154819D01*
X143838094Y-103154819D02*
X143838094Y-102154819D01*
X143838094Y-102154819D02*
X143599999Y-102154819D01*
X143599999Y-102154819D02*
X143457142Y-102202438D01*
X143457142Y-102202438D02*
X143361904Y-102297676D01*
X143361904Y-102297676D02*
X143314285Y-102392914D01*
X143314285Y-102392914D02*
X143266666Y-102583390D01*
X143266666Y-102583390D02*
X143266666Y-102726247D01*
X143266666Y-102726247D02*
X143314285Y-102916723D01*
X143314285Y-102916723D02*
X143361904Y-103011961D01*
X143361904Y-103011961D02*
X143457142Y-103107200D01*
X143457142Y-103107200D02*
X143599999Y-103154819D01*
X143599999Y-103154819D02*
X143838094Y-103154819D01*
D11*
X147200000Y-99900000D02*
G75*
G03*
X147200000Y-99900000I-2100000J0D01*
G01*
D12*
%TO.C,GPIO*%
X146996800Y-88593500D02*
G75*
G03*
X146996800Y-88593500I-381000J0D01*
G01*
%TO.C,+5V*%
X150654400Y-104700000D02*
G75*
G03*
X150654400Y-104700000I-381000J0D01*
G01*
%TO.C,DOUT*%
X156781000Y-94829900D02*
G75*
G03*
X156781000Y-94829900I-381000J0D01*
G01*
%TO.C,DIN*%
X140774600Y-98487500D02*
G75*
G03*
X140774600Y-98487500I-381000J0D01*
G01*
%TD*%
M02*
