%TF.GenerationSoftware,KiCad,Pcbnew,7.0.5*%
%TF.CreationDate,2023-06-19T13:42:10-05:00*%
%TF.ProjectId,VoidSwitch,566f6964-5377-4697-9463-682e6b696361,rev?*%
%TF.SameCoordinates,Original*%
%TF.FileFunction,Legend,Top*%
%TF.FilePolarity,Positive*%
%FSLAX46Y46*%
G04 Gerber Fmt 4.6, Leading zero omitted, Abs format (unit mm)*
G04 Created by KiCad (PCBNEW 7.0.5) date 2023-06-19 13:42:10*
%MOMM*%
%LPD*%
G01*
G04 APERTURE LIST*
%ADD10C,0.150000*%
%ADD11C,0.075000*%
%ADD12C,0.250000*%
%ADD13C,0.508000*%
%ADD14C,0.152400*%
%ADD15C,0.100000*%
%ADD16C,0.200000*%
%ADD17C,0.120000*%
%ADD18C,0.125000*%
G04 APERTURE END LIST*
D10*
%TO.C,*%
%TO.C,GPIO*%
X154299999Y-89097561D02*
X154395237Y-89145180D01*
X154395237Y-89145180D02*
X154538094Y-89145180D01*
X154538094Y-89145180D02*
X154680951Y-89097561D01*
X154680951Y-89097561D02*
X154776189Y-89002323D01*
X154776189Y-89002323D02*
X154823808Y-88907085D01*
X154823808Y-88907085D02*
X154871427Y-88716609D01*
X154871427Y-88716609D02*
X154871427Y-88573752D01*
X154871427Y-88573752D02*
X154823808Y-88383276D01*
X154823808Y-88383276D02*
X154776189Y-88288038D01*
X154776189Y-88288038D02*
X154680951Y-88192800D01*
X154680951Y-88192800D02*
X154538094Y-88145180D01*
X154538094Y-88145180D02*
X154442856Y-88145180D01*
X154442856Y-88145180D02*
X154299999Y-88192800D01*
X154299999Y-88192800D02*
X154252380Y-88240419D01*
X154252380Y-88240419D02*
X154252380Y-88573752D01*
X154252380Y-88573752D02*
X154442856Y-88573752D01*
X153823808Y-88145180D02*
X153823808Y-89145180D01*
X153823808Y-89145180D02*
X153442856Y-89145180D01*
X153442856Y-89145180D02*
X153347618Y-89097561D01*
X153347618Y-89097561D02*
X153299999Y-89049942D01*
X153299999Y-89049942D02*
X153252380Y-88954704D01*
X153252380Y-88954704D02*
X153252380Y-88811847D01*
X153252380Y-88811847D02*
X153299999Y-88716609D01*
X153299999Y-88716609D02*
X153347618Y-88668990D01*
X153347618Y-88668990D02*
X153442856Y-88621371D01*
X153442856Y-88621371D02*
X153823808Y-88621371D01*
X152823808Y-88145180D02*
X152823808Y-89145180D01*
X152157142Y-89145180D02*
X151966666Y-89145180D01*
X151966666Y-89145180D02*
X151871428Y-89097561D01*
X151871428Y-89097561D02*
X151776190Y-89002323D01*
X151776190Y-89002323D02*
X151728571Y-88811847D01*
X151728571Y-88811847D02*
X151728571Y-88478514D01*
X151728571Y-88478514D02*
X151776190Y-88288038D01*
X151776190Y-88288038D02*
X151871428Y-88192800D01*
X151871428Y-88192800D02*
X151966666Y-88145180D01*
X151966666Y-88145180D02*
X152157142Y-88145180D01*
X152157142Y-88145180D02*
X152252380Y-88192800D01*
X152252380Y-88192800D02*
X152347618Y-88288038D01*
X152347618Y-88288038D02*
X152395237Y-88478514D01*
X152395237Y-88478514D02*
X152395237Y-88811847D01*
X152395237Y-88811847D02*
X152347618Y-89002323D01*
X152347618Y-89002323D02*
X152252380Y-89097561D01*
X152252380Y-89097561D02*
X152157142Y-89145180D01*
%TO.C,+5V*%
X142714286Y-104773866D02*
X143476191Y-104773866D01*
X143095238Y-105154819D02*
X143095238Y-104392914D01*
X144428571Y-104154819D02*
X143952381Y-104154819D01*
X143952381Y-104154819D02*
X143904762Y-104631009D01*
X143904762Y-104631009D02*
X143952381Y-104583390D01*
X143952381Y-104583390D02*
X144047619Y-104535771D01*
X144047619Y-104535771D02*
X144285714Y-104535771D01*
X144285714Y-104535771D02*
X144380952Y-104583390D01*
X144380952Y-104583390D02*
X144428571Y-104631009D01*
X144428571Y-104631009D02*
X144476190Y-104726247D01*
X144476190Y-104726247D02*
X144476190Y-104964342D01*
X144476190Y-104964342D02*
X144428571Y-105059580D01*
X144428571Y-105059580D02*
X144380952Y-105107200D01*
X144380952Y-105107200D02*
X144285714Y-105154819D01*
X144285714Y-105154819D02*
X144047619Y-105154819D01*
X144047619Y-105154819D02*
X143952381Y-105107200D01*
X143952381Y-105107200D02*
X143904762Y-105059580D01*
X144761905Y-104154819D02*
X145095238Y-105154819D01*
X145095238Y-105154819D02*
X145428571Y-104154819D01*
%TO.C,DOUT*%
X156854819Y-103090475D02*
X155854819Y-103090475D01*
X155854819Y-103090475D02*
X155854819Y-102852380D01*
X155854819Y-102852380D02*
X155902438Y-102709523D01*
X155902438Y-102709523D02*
X155997676Y-102614285D01*
X155997676Y-102614285D02*
X156092914Y-102566666D01*
X156092914Y-102566666D02*
X156283390Y-102519047D01*
X156283390Y-102519047D02*
X156426247Y-102519047D01*
X156426247Y-102519047D02*
X156616723Y-102566666D01*
X156616723Y-102566666D02*
X156711961Y-102614285D01*
X156711961Y-102614285D02*
X156807200Y-102709523D01*
X156807200Y-102709523D02*
X156854819Y-102852380D01*
X156854819Y-102852380D02*
X156854819Y-103090475D01*
X155854819Y-101899999D02*
X155854819Y-101709523D01*
X155854819Y-101709523D02*
X155902438Y-101614285D01*
X155902438Y-101614285D02*
X155997676Y-101519047D01*
X155997676Y-101519047D02*
X156188152Y-101471428D01*
X156188152Y-101471428D02*
X156521485Y-101471428D01*
X156521485Y-101471428D02*
X156711961Y-101519047D01*
X156711961Y-101519047D02*
X156807200Y-101614285D01*
X156807200Y-101614285D02*
X156854819Y-101709523D01*
X156854819Y-101709523D02*
X156854819Y-101899999D01*
X156854819Y-101899999D02*
X156807200Y-101995237D01*
X156807200Y-101995237D02*
X156711961Y-102090475D01*
X156711961Y-102090475D02*
X156521485Y-102138094D01*
X156521485Y-102138094D02*
X156188152Y-102138094D01*
X156188152Y-102138094D02*
X155997676Y-102090475D01*
X155997676Y-102090475D02*
X155902438Y-101995237D01*
X155902438Y-101995237D02*
X155854819Y-101899999D01*
X155854819Y-101042856D02*
X156664342Y-101042856D01*
X156664342Y-101042856D02*
X156759580Y-100995237D01*
X156759580Y-100995237D02*
X156807200Y-100947618D01*
X156807200Y-100947618D02*
X156854819Y-100852380D01*
X156854819Y-100852380D02*
X156854819Y-100661904D01*
X156854819Y-100661904D02*
X156807200Y-100566666D01*
X156807200Y-100566666D02*
X156759580Y-100519047D01*
X156759580Y-100519047D02*
X156664342Y-100471428D01*
X156664342Y-100471428D02*
X155854819Y-100471428D01*
X155854819Y-100138094D02*
X155854819Y-99566666D01*
X156854819Y-99852380D02*
X155854819Y-99852380D01*
%TO.C,DIN*%
X139938780Y-91676191D02*
X140938780Y-91676191D01*
X140938780Y-91676191D02*
X140938780Y-91914286D01*
X140938780Y-91914286D02*
X140891161Y-92057143D01*
X140891161Y-92057143D02*
X140795923Y-92152381D01*
X140795923Y-92152381D02*
X140700685Y-92200000D01*
X140700685Y-92200000D02*
X140510209Y-92247619D01*
X140510209Y-92247619D02*
X140367352Y-92247619D01*
X140367352Y-92247619D02*
X140176876Y-92200000D01*
X140176876Y-92200000D02*
X140081638Y-92152381D01*
X140081638Y-92152381D02*
X139986400Y-92057143D01*
X139986400Y-92057143D02*
X139938780Y-91914286D01*
X139938780Y-91914286D02*
X139938780Y-91676191D01*
X139938780Y-92676191D02*
X140938780Y-92676191D01*
X139938780Y-93152381D02*
X140938780Y-93152381D01*
X140938780Y-93152381D02*
X139938780Y-93723809D01*
X139938780Y-93723809D02*
X140938780Y-93723809D01*
%TO.C,D1*%
X147104819Y-96738094D02*
X146104819Y-96738094D01*
X146104819Y-96738094D02*
X146104819Y-96499999D01*
X146104819Y-96499999D02*
X146152438Y-96357142D01*
X146152438Y-96357142D02*
X146247676Y-96261904D01*
X146247676Y-96261904D02*
X146342914Y-96214285D01*
X146342914Y-96214285D02*
X146533390Y-96166666D01*
X146533390Y-96166666D02*
X146676247Y-96166666D01*
X146676247Y-96166666D02*
X146866723Y-96214285D01*
X146866723Y-96214285D02*
X146961961Y-96261904D01*
X146961961Y-96261904D02*
X147057200Y-96357142D01*
X147057200Y-96357142D02*
X147104819Y-96499999D01*
X147104819Y-96499999D02*
X147104819Y-96738094D01*
X147104819Y-95214285D02*
X147104819Y-95785713D01*
X147104819Y-95499999D02*
X146104819Y-95499999D01*
X146104819Y-95499999D02*
X146247676Y-95595237D01*
X146247676Y-95595237D02*
X146342914Y-95690475D01*
X146342914Y-95690475D02*
X146390533Y-95785713D01*
D11*
X148084885Y-96839285D02*
X148084885Y-97010714D01*
X148084885Y-96924999D02*
X147784885Y-96924999D01*
X147784885Y-96924999D02*
X147827742Y-96953571D01*
X147827742Y-96953571D02*
X147856314Y-96982142D01*
X147856314Y-96982142D02*
X147870600Y-97010714D01*
D10*
%TO.C,HE*%
X150861905Y-97554819D02*
X150861905Y-96554819D01*
X150861905Y-97031009D02*
X151433333Y-97031009D01*
X151433333Y-97554819D02*
X151433333Y-96554819D01*
X151909524Y-97031009D02*
X152242857Y-97031009D01*
X152385714Y-97554819D02*
X151909524Y-97554819D01*
X151909524Y-97554819D02*
X151909524Y-96554819D01*
X151909524Y-96554819D02*
X152385714Y-96554819D01*
D12*
%TO.C,AM0:1*%
X147419048Y-91412238D02*
X147752381Y-93412238D01*
X147752381Y-93412238D02*
X148085714Y-91412238D01*
X148561905Y-93412238D02*
X148466667Y-93317000D01*
X148466667Y-93317000D02*
X148419048Y-93221761D01*
X148419048Y-93221761D02*
X148371429Y-93031285D01*
X148371429Y-93031285D02*
X148371429Y-92459857D01*
X148371429Y-92459857D02*
X148419048Y-92269380D01*
X148419048Y-92269380D02*
X148466667Y-92174142D01*
X148466667Y-92174142D02*
X148561905Y-92078904D01*
X148561905Y-92078904D02*
X148704762Y-92078904D01*
X148704762Y-92078904D02*
X148800000Y-92174142D01*
X148800000Y-92174142D02*
X148847619Y-92269380D01*
X148847619Y-92269380D02*
X148895238Y-92459857D01*
X148895238Y-92459857D02*
X148895238Y-93031285D01*
X148895238Y-93031285D02*
X148847619Y-93221761D01*
X148847619Y-93221761D02*
X148800000Y-93317000D01*
X148800000Y-93317000D02*
X148704762Y-93412238D01*
X148704762Y-93412238D02*
X148561905Y-93412238D01*
X149323810Y-93412238D02*
X149323810Y-92078904D01*
X149323810Y-91412238D02*
X149276191Y-91507476D01*
X149276191Y-91507476D02*
X149323810Y-91602714D01*
X149323810Y-91602714D02*
X149371429Y-91507476D01*
X149371429Y-91507476D02*
X149323810Y-91412238D01*
X149323810Y-91412238D02*
X149323810Y-91602714D01*
X150228571Y-93412238D02*
X150228571Y-91412238D01*
X150228571Y-93317000D02*
X150133333Y-93412238D01*
X150133333Y-93412238D02*
X149942857Y-93412238D01*
X149942857Y-93412238D02*
X149847619Y-93317000D01*
X149847619Y-93317000D02*
X149800000Y-93221761D01*
X149800000Y-93221761D02*
X149752381Y-93031285D01*
X149752381Y-93031285D02*
X149752381Y-92459857D01*
X149752381Y-92459857D02*
X149800000Y-92269380D01*
X149800000Y-92269380D02*
X149847619Y-92174142D01*
X149847619Y-92174142D02*
X149942857Y-92078904D01*
X149942857Y-92078904D02*
X150133333Y-92078904D01*
X150133333Y-92078904D02*
X150228571Y-92174142D01*
X150657143Y-93317000D02*
X150800000Y-93412238D01*
X150800000Y-93412238D02*
X151038095Y-93412238D01*
X151038095Y-93412238D02*
X151133333Y-93317000D01*
X151133333Y-93317000D02*
X151180952Y-93221761D01*
X151180952Y-93221761D02*
X151228571Y-93031285D01*
X151228571Y-93031285D02*
X151228571Y-92840809D01*
X151228571Y-92840809D02*
X151180952Y-92650333D01*
X151180952Y-92650333D02*
X151133333Y-92555095D01*
X151133333Y-92555095D02*
X151038095Y-92459857D01*
X151038095Y-92459857D02*
X150847619Y-92364619D01*
X150847619Y-92364619D02*
X150752381Y-92269380D01*
X150752381Y-92269380D02*
X150704762Y-92174142D01*
X150704762Y-92174142D02*
X150657143Y-91983666D01*
X150657143Y-91983666D02*
X150657143Y-91793190D01*
X150657143Y-91793190D02*
X150704762Y-91602714D01*
X150704762Y-91602714D02*
X150752381Y-91507476D01*
X150752381Y-91507476D02*
X150847619Y-91412238D01*
X150847619Y-91412238D02*
X151085714Y-91412238D01*
X151085714Y-91412238D02*
X151228571Y-91507476D01*
X151561905Y-92078904D02*
X151752381Y-93412238D01*
X151752381Y-93412238D02*
X151942857Y-92459857D01*
X151942857Y-92459857D02*
X152133333Y-93412238D01*
X152133333Y-93412238D02*
X152323809Y-92078904D01*
X152704762Y-93412238D02*
X152704762Y-92078904D01*
X152704762Y-91412238D02*
X152657143Y-91507476D01*
X152657143Y-91507476D02*
X152704762Y-91602714D01*
X152704762Y-91602714D02*
X152752381Y-91507476D01*
X152752381Y-91507476D02*
X152704762Y-91412238D01*
X152704762Y-91412238D02*
X152704762Y-91602714D01*
X153038095Y-92078904D02*
X153419047Y-92078904D01*
X153180952Y-91412238D02*
X153180952Y-93126523D01*
X153180952Y-93126523D02*
X153228571Y-93317000D01*
X153228571Y-93317000D02*
X153323809Y-93412238D01*
X153323809Y-93412238D02*
X153419047Y-93412238D01*
X154180952Y-93317000D02*
X154085714Y-93412238D01*
X154085714Y-93412238D02*
X153895238Y-93412238D01*
X153895238Y-93412238D02*
X153800000Y-93317000D01*
X153800000Y-93317000D02*
X153752381Y-93221761D01*
X153752381Y-93221761D02*
X153704762Y-93031285D01*
X153704762Y-93031285D02*
X153704762Y-92459857D01*
X153704762Y-92459857D02*
X153752381Y-92269380D01*
X153752381Y-92269380D02*
X153800000Y-92174142D01*
X153800000Y-92174142D02*
X153895238Y-92078904D01*
X153895238Y-92078904D02*
X154085714Y-92078904D01*
X154085714Y-92078904D02*
X154180952Y-92174142D01*
X154609524Y-93412238D02*
X154609524Y-91412238D01*
X155038095Y-93412238D02*
X155038095Y-92364619D01*
X155038095Y-92364619D02*
X154990476Y-92174142D01*
X154990476Y-92174142D02*
X154895238Y-92078904D01*
X154895238Y-92078904D02*
X154752381Y-92078904D01*
X154752381Y-92078904D02*
X154657143Y-92174142D01*
X154657143Y-92174142D02*
X154609524Y-92269380D01*
D13*
%TO.C,GPIO*%
X146996800Y-88593500D02*
G75*
G03*
X146996800Y-88593500I-381000J0D01*
G01*
D14*
X148240649Y-87869600D02*
X147250800Y-87869600D01*
X147250800Y-87869600D02*
X147250800Y-89317400D01*
X147250800Y-89317400D02*
X148240649Y-89317400D01*
X150705200Y-89317400D02*
X150705200Y-87869600D01*
D13*
%TO.C,+5V*%
X150654400Y-104700000D02*
G75*
G03*
X150654400Y-104700000I-381000J0D01*
G01*
D14*
X148648551Y-105423900D02*
X149638400Y-105423900D01*
X149638400Y-105423900D02*
X149638400Y-103976100D01*
X149638400Y-103976100D02*
X148648551Y-103976100D01*
X146184000Y-103976100D02*
X146184000Y-105423900D01*
D13*
%TO.C,DOUT*%
X156781000Y-94829900D02*
G75*
G03*
X156781000Y-94829900I-381000J0D01*
G01*
D14*
X157123900Y-96454749D02*
X157123900Y-95464900D01*
X157123900Y-95464900D02*
X155676100Y-95464900D01*
X155676100Y-95464900D02*
X155676100Y-96454749D01*
X155676100Y-98919300D02*
X157123900Y-98919300D01*
D13*
%TO.C,DIN*%
X140774600Y-98487500D02*
G75*
G03*
X140774600Y-98487500I-381000J0D01*
G01*
D14*
X139669700Y-96862651D02*
X139669700Y-97852500D01*
X139669700Y-97852500D02*
X141117500Y-97852500D01*
X141117500Y-97852500D02*
X141117500Y-96862651D01*
X141117500Y-94398100D02*
X139669700Y-94398100D01*
D15*
%TO.C,D1*%
X148200000Y-95150000D02*
X147550000Y-95150000D01*
X147550000Y-95150000D02*
X147550000Y-95800000D01*
D16*
%TO.C,HE*%
X150899999Y-98300000D02*
X150899999Y-99100001D01*
X150899999Y-100500001D02*
X150899999Y-101300000D01*
X151399998Y-98300000D02*
X150899999Y-98300000D01*
X151399998Y-101300000D02*
X150899999Y-101300000D01*
D17*
%TO.C,AM0:1*%
X141459600Y-89673700D02*
X155429600Y-89673700D01*
X141459600Y-103643700D02*
X141459600Y-89673700D01*
X155429600Y-89673700D02*
X155429600Y-103643700D01*
X155429600Y-103643700D02*
X141459600Y-103643700D01*
D18*
X151938378Y-99908700D02*
G75*
G03*
X151938378Y-99908700I-243778J0D01*
G01*
%TD*%
M02*
