%TF.GenerationSoftware,KiCad,Pcbnew,7.0.5*%
%TF.CreationDate,2023-06-14T21:13:02-05:00*%
%TF.ProjectId,VoidSwitch,566f6964-5377-4697-9463-682e6b696361,rev?*%
%TF.SameCoordinates,Original*%
%TF.FileFunction,Legend,Top*%
%TF.FilePolarity,Positive*%
%FSLAX46Y46*%
G04 Gerber Fmt 4.6, Leading zero omitted, Abs format (unit mm)*
G04 Created by KiCad (PCBNEW 7.0.5) date 2023-06-14 21:13:02*
%MOMM*%
%LPD*%
G01*
G04 APERTURE LIST*
%ADD10C,0.150000*%
%ADD11C,0.200000*%
%ADD12C,0.250000*%
%ADD13C,0.152400*%
%ADD14C,0.508000*%
%ADD15C,0.120000*%
%ADD16C,0.125000*%
G04 APERTURE END LIST*
D10*
%TO.C,U1*%
X151338095Y-99454819D02*
X151338095Y-100264342D01*
X151338095Y-100264342D02*
X151385714Y-100359580D01*
X151385714Y-100359580D02*
X151433333Y-100407200D01*
X151433333Y-100407200D02*
X151528571Y-100454819D01*
X151528571Y-100454819D02*
X151719047Y-100454819D01*
X151719047Y-100454819D02*
X151814285Y-100407200D01*
X151814285Y-100407200D02*
X151861904Y-100359580D01*
X151861904Y-100359580D02*
X151909523Y-100264342D01*
X151909523Y-100264342D02*
X151909523Y-99454819D01*
X152909523Y-100454819D02*
X152338095Y-100454819D01*
X152623809Y-100454819D02*
X152623809Y-99454819D01*
X152623809Y-99454819D02*
X152528571Y-99597676D01*
X152528571Y-99597676D02*
X152433333Y-99692914D01*
X152433333Y-99692914D02*
X152338095Y-99740533D01*
X146463314Y-97813219D02*
X146463314Y-96813219D01*
X146463314Y-96813219D02*
X146701409Y-96813219D01*
X146701409Y-96813219D02*
X146844266Y-96860838D01*
X146844266Y-96860838D02*
X146939504Y-96956076D01*
X146939504Y-96956076D02*
X146987123Y-97051314D01*
X146987123Y-97051314D02*
X147034742Y-97241790D01*
X147034742Y-97241790D02*
X147034742Y-97384647D01*
X147034742Y-97384647D02*
X146987123Y-97575123D01*
X146987123Y-97575123D02*
X146939504Y-97670361D01*
X146939504Y-97670361D02*
X146844266Y-97765600D01*
X146844266Y-97765600D02*
X146701409Y-97813219D01*
X146701409Y-97813219D02*
X146463314Y-97813219D01*
X147844266Y-97765600D02*
X147749028Y-97813219D01*
X147749028Y-97813219D02*
X147558552Y-97813219D01*
X147558552Y-97813219D02*
X147463314Y-97765600D01*
X147463314Y-97765600D02*
X147415695Y-97670361D01*
X147415695Y-97670361D02*
X147415695Y-97289409D01*
X147415695Y-97289409D02*
X147463314Y-97194171D01*
X147463314Y-97194171D02*
X147558552Y-97146552D01*
X147558552Y-97146552D02*
X147749028Y-97146552D01*
X147749028Y-97146552D02*
X147844266Y-97194171D01*
X147844266Y-97194171D02*
X147891885Y-97289409D01*
X147891885Y-97289409D02*
X147891885Y-97384647D01*
X147891885Y-97384647D02*
X147415695Y-97479885D01*
X148272838Y-97765600D02*
X148368076Y-97813219D01*
X148368076Y-97813219D02*
X148558552Y-97813219D01*
X148558552Y-97813219D02*
X148653790Y-97765600D01*
X148653790Y-97765600D02*
X148701409Y-97670361D01*
X148701409Y-97670361D02*
X148701409Y-97622742D01*
X148701409Y-97622742D02*
X148653790Y-97527504D01*
X148653790Y-97527504D02*
X148558552Y-97479885D01*
X148558552Y-97479885D02*
X148415695Y-97479885D01*
X148415695Y-97479885D02*
X148320457Y-97432266D01*
X148320457Y-97432266D02*
X148272838Y-97337028D01*
X148272838Y-97337028D02*
X148272838Y-97289409D01*
X148272838Y-97289409D02*
X148320457Y-97194171D01*
X148320457Y-97194171D02*
X148415695Y-97146552D01*
X148415695Y-97146552D02*
X148558552Y-97146552D01*
X148558552Y-97146552D02*
X148653790Y-97194171D01*
X149129981Y-97813219D02*
X149129981Y-97146552D01*
X149129981Y-96813219D02*
X149082362Y-96860838D01*
X149082362Y-96860838D02*
X149129981Y-96908457D01*
X149129981Y-96908457D02*
X149177600Y-96860838D01*
X149177600Y-96860838D02*
X149129981Y-96813219D01*
X149129981Y-96813219D02*
X149129981Y-96908457D01*
X150034742Y-97146552D02*
X150034742Y-97956076D01*
X150034742Y-97956076D02*
X149987123Y-98051314D01*
X149987123Y-98051314D02*
X149939504Y-98098933D01*
X149939504Y-98098933D02*
X149844266Y-98146552D01*
X149844266Y-98146552D02*
X149701409Y-98146552D01*
X149701409Y-98146552D02*
X149606171Y-98098933D01*
X150034742Y-97765600D02*
X149939504Y-97813219D01*
X149939504Y-97813219D02*
X149749028Y-97813219D01*
X149749028Y-97813219D02*
X149653790Y-97765600D01*
X149653790Y-97765600D02*
X149606171Y-97717980D01*
X149606171Y-97717980D02*
X149558552Y-97622742D01*
X149558552Y-97622742D02*
X149558552Y-97337028D01*
X149558552Y-97337028D02*
X149606171Y-97241790D01*
X149606171Y-97241790D02*
X149653790Y-97194171D01*
X149653790Y-97194171D02*
X149749028Y-97146552D01*
X149749028Y-97146552D02*
X149939504Y-97146552D01*
X149939504Y-97146552D02*
X150034742Y-97194171D01*
X150510933Y-97146552D02*
X150510933Y-97813219D01*
X150510933Y-97241790D02*
X150558552Y-97194171D01*
X150558552Y-97194171D02*
X150653790Y-97146552D01*
X150653790Y-97146552D02*
X150796647Y-97146552D01*
X150796647Y-97146552D02*
X150891885Y-97194171D01*
X150891885Y-97194171D02*
X150939504Y-97289409D01*
X150939504Y-97289409D02*
X150939504Y-97813219D01*
X151844266Y-97813219D02*
X151844266Y-97289409D01*
X151844266Y-97289409D02*
X151796647Y-97194171D01*
X151796647Y-97194171D02*
X151701409Y-97146552D01*
X151701409Y-97146552D02*
X151510933Y-97146552D01*
X151510933Y-97146552D02*
X151415695Y-97194171D01*
X151844266Y-97765600D02*
X151749028Y-97813219D01*
X151749028Y-97813219D02*
X151510933Y-97813219D01*
X151510933Y-97813219D02*
X151415695Y-97765600D01*
X151415695Y-97765600D02*
X151368076Y-97670361D01*
X151368076Y-97670361D02*
X151368076Y-97575123D01*
X151368076Y-97575123D02*
X151415695Y-97479885D01*
X151415695Y-97479885D02*
X151510933Y-97432266D01*
X151510933Y-97432266D02*
X151749028Y-97432266D01*
X151749028Y-97432266D02*
X151844266Y-97384647D01*
X152177600Y-97146552D02*
X152558552Y-97146552D01*
X152320457Y-96813219D02*
X152320457Y-97670361D01*
X152320457Y-97670361D02*
X152368076Y-97765600D01*
X152368076Y-97765600D02*
X152463314Y-97813219D01*
X152463314Y-97813219D02*
X152558552Y-97813219D01*
X153034743Y-97813219D02*
X152939505Y-97765600D01*
X152939505Y-97765600D02*
X152891886Y-97717980D01*
X152891886Y-97717980D02*
X152844267Y-97622742D01*
X152844267Y-97622742D02*
X152844267Y-97337028D01*
X152844267Y-97337028D02*
X152891886Y-97241790D01*
X152891886Y-97241790D02*
X152939505Y-97194171D01*
X152939505Y-97194171D02*
X153034743Y-97146552D01*
X153034743Y-97146552D02*
X153177600Y-97146552D01*
X153177600Y-97146552D02*
X153272838Y-97194171D01*
X153272838Y-97194171D02*
X153320457Y-97241790D01*
X153320457Y-97241790D02*
X153368076Y-97337028D01*
X153368076Y-97337028D02*
X153368076Y-97622742D01*
X153368076Y-97622742D02*
X153320457Y-97717980D01*
X153320457Y-97717980D02*
X153272838Y-97765600D01*
X153272838Y-97765600D02*
X153177600Y-97813219D01*
X153177600Y-97813219D02*
X153034743Y-97813219D01*
X153796648Y-97813219D02*
X153796648Y-97146552D01*
X153796648Y-97337028D02*
X153844267Y-97241790D01*
X153844267Y-97241790D02*
X153891886Y-97194171D01*
X153891886Y-97194171D02*
X153987124Y-97146552D01*
X153987124Y-97146552D02*
X154082362Y-97146552D01*
X154463315Y-97813219D02*
X154653791Y-97813219D01*
X154653791Y-97813219D02*
X154749029Y-97765600D01*
X154749029Y-97765600D02*
X154796648Y-97717980D01*
X154796648Y-97717980D02*
X154891886Y-97575123D01*
X154891886Y-97575123D02*
X154939505Y-97384647D01*
X154939505Y-97384647D02*
X154939505Y-97003695D01*
X154939505Y-97003695D02*
X154891886Y-96908457D01*
X154891886Y-96908457D02*
X154844267Y-96860838D01*
X154844267Y-96860838D02*
X154749029Y-96813219D01*
X154749029Y-96813219D02*
X154558553Y-96813219D01*
X154558553Y-96813219D02*
X154463315Y-96860838D01*
X154463315Y-96860838D02*
X154415696Y-96908457D01*
X154415696Y-96908457D02*
X154368077Y-97003695D01*
X154368077Y-97003695D02*
X154368077Y-97241790D01*
X154368077Y-97241790D02*
X154415696Y-97337028D01*
X154415696Y-97337028D02*
X154463315Y-97384647D01*
X154463315Y-97384647D02*
X154558553Y-97432266D01*
X154558553Y-97432266D02*
X154749029Y-97432266D01*
X154749029Y-97432266D02*
X154844267Y-97384647D01*
X154844267Y-97384647D02*
X154891886Y-97337028D01*
X154891886Y-97337028D02*
X154939505Y-97241790D01*
%TO.C,J4*%
X148854819Y-87858333D02*
X149569104Y-87858333D01*
X149569104Y-87858333D02*
X149711961Y-87905952D01*
X149711961Y-87905952D02*
X149807200Y-88001190D01*
X149807200Y-88001190D02*
X149854819Y-88144047D01*
X149854819Y-88144047D02*
X149854819Y-88239285D01*
X149188152Y-86953571D02*
X149854819Y-86953571D01*
X148807200Y-87191666D02*
X149521485Y-87429761D01*
X149521485Y-87429761D02*
X149521485Y-86810714D01*
%TO.C,J3*%
X148183280Y-105533266D02*
X147468995Y-105533266D01*
X147468995Y-105533266D02*
X147326138Y-105485647D01*
X147326138Y-105485647D02*
X147230900Y-105390409D01*
X147230900Y-105390409D02*
X147183280Y-105247552D01*
X147183280Y-105247552D02*
X147183280Y-105152314D01*
X148183280Y-105914219D02*
X148183280Y-106533266D01*
X148183280Y-106533266D02*
X147802328Y-106199933D01*
X147802328Y-106199933D02*
X147802328Y-106342790D01*
X147802328Y-106342790D02*
X147754709Y-106438028D01*
X147754709Y-106438028D02*
X147707090Y-106485647D01*
X147707090Y-106485647D02*
X147611852Y-106533266D01*
X147611852Y-106533266D02*
X147373757Y-106533266D01*
X147373757Y-106533266D02*
X147278519Y-106485647D01*
X147278519Y-106485647D02*
X147230900Y-106438028D01*
X147230900Y-106438028D02*
X147183280Y-106342790D01*
X147183280Y-106342790D02*
X147183280Y-106057076D01*
X147183280Y-106057076D02*
X147230900Y-105961838D01*
X147230900Y-105961838D02*
X147278519Y-105914219D01*
%TO.C,J2*%
X157241666Y-96919919D02*
X157241666Y-97634204D01*
X157241666Y-97634204D02*
X157194047Y-97777061D01*
X157194047Y-97777061D02*
X157098809Y-97872300D01*
X157098809Y-97872300D02*
X156955952Y-97919919D01*
X156955952Y-97919919D02*
X156860714Y-97919919D01*
X157670238Y-97015157D02*
X157717857Y-96967538D01*
X157717857Y-96967538D02*
X157813095Y-96919919D01*
X157813095Y-96919919D02*
X158051190Y-96919919D01*
X158051190Y-96919919D02*
X158146428Y-96967538D01*
X158146428Y-96967538D02*
X158194047Y-97015157D01*
X158194047Y-97015157D02*
X158241666Y-97110395D01*
X158241666Y-97110395D02*
X158241666Y-97205633D01*
X158241666Y-97205633D02*
X158194047Y-97348490D01*
X158194047Y-97348490D02*
X157622619Y-97919919D01*
X157622619Y-97919919D02*
X158241666Y-97919919D01*
%TO.C,J1*%
X139558333Y-97445180D02*
X139558333Y-96730895D01*
X139558333Y-96730895D02*
X139605952Y-96588038D01*
X139605952Y-96588038D02*
X139701190Y-96492800D01*
X139701190Y-96492800D02*
X139844047Y-96445180D01*
X139844047Y-96445180D02*
X139939285Y-96445180D01*
X138558333Y-96445180D02*
X139129761Y-96445180D01*
X138844047Y-96445180D02*
X138844047Y-97445180D01*
X138844047Y-97445180D02*
X138939285Y-97302323D01*
X138939285Y-97302323D02*
X139034523Y-97207085D01*
X139034523Y-97207085D02*
X139129761Y-97159466D01*
%TO.C,D1*%
X145561905Y-91154819D02*
X145561905Y-90154819D01*
X145561905Y-90154819D02*
X145800000Y-90154819D01*
X145800000Y-90154819D02*
X145942857Y-90202438D01*
X145942857Y-90202438D02*
X146038095Y-90297676D01*
X146038095Y-90297676D02*
X146085714Y-90392914D01*
X146085714Y-90392914D02*
X146133333Y-90583390D01*
X146133333Y-90583390D02*
X146133333Y-90726247D01*
X146133333Y-90726247D02*
X146085714Y-90916723D01*
X146085714Y-90916723D02*
X146038095Y-91011961D01*
X146038095Y-91011961D02*
X145942857Y-91107200D01*
X145942857Y-91107200D02*
X145800000Y-91154819D01*
X145800000Y-91154819D02*
X145561905Y-91154819D01*
X147085714Y-91154819D02*
X146514286Y-91154819D01*
X146800000Y-91154819D02*
X146800000Y-90154819D01*
X146800000Y-90154819D02*
X146704762Y-90297676D01*
X146704762Y-90297676D02*
X146609524Y-90392914D01*
X146609524Y-90392914D02*
X146514286Y-90440533D01*
X142435714Y-93054819D02*
X141864286Y-93054819D01*
X142150000Y-93054819D02*
X142150000Y-92054819D01*
X142150000Y-92054819D02*
X142054762Y-92197676D01*
X142054762Y-92197676D02*
X141959524Y-92292914D01*
X141959524Y-92292914D02*
X141864286Y-92340533D01*
D11*
%TO.C,AM0:1*%
X149744600Y-103125204D02*
X150220790Y-103125204D01*
X149649362Y-103410919D02*
X149982695Y-102410919D01*
X149982695Y-102410919D02*
X150316028Y-103410919D01*
X150649362Y-103410919D02*
X150649362Y-102410919D01*
X150649362Y-102410919D02*
X150982695Y-103125204D01*
X150982695Y-103125204D02*
X151316028Y-102410919D01*
X151316028Y-102410919D02*
X151316028Y-103410919D01*
X151982695Y-102410919D02*
X152077933Y-102410919D01*
X152077933Y-102410919D02*
X152173171Y-102458538D01*
X152173171Y-102458538D02*
X152220790Y-102506157D01*
X152220790Y-102506157D02*
X152268409Y-102601395D01*
X152268409Y-102601395D02*
X152316028Y-102791871D01*
X152316028Y-102791871D02*
X152316028Y-103029966D01*
X152316028Y-103029966D02*
X152268409Y-103220442D01*
X152268409Y-103220442D02*
X152220790Y-103315680D01*
X152220790Y-103315680D02*
X152173171Y-103363300D01*
X152173171Y-103363300D02*
X152077933Y-103410919D01*
X152077933Y-103410919D02*
X151982695Y-103410919D01*
X151982695Y-103410919D02*
X151887457Y-103363300D01*
X151887457Y-103363300D02*
X151839838Y-103315680D01*
X151839838Y-103315680D02*
X151792219Y-103220442D01*
X151792219Y-103220442D02*
X151744600Y-103029966D01*
X151744600Y-103029966D02*
X151744600Y-102791871D01*
X151744600Y-102791871D02*
X151792219Y-102601395D01*
X151792219Y-102601395D02*
X151839838Y-102506157D01*
X151839838Y-102506157D02*
X151887457Y-102458538D01*
X151887457Y-102458538D02*
X151982695Y-102410919D01*
X152744600Y-103315680D02*
X152792219Y-103363300D01*
X152792219Y-103363300D02*
X152744600Y-103410919D01*
X152744600Y-103410919D02*
X152696981Y-103363300D01*
X152696981Y-103363300D02*
X152744600Y-103315680D01*
X152744600Y-103315680D02*
X152744600Y-103410919D01*
X152744600Y-102791871D02*
X152792219Y-102839490D01*
X152792219Y-102839490D02*
X152744600Y-102887109D01*
X152744600Y-102887109D02*
X152696981Y-102839490D01*
X152696981Y-102839490D02*
X152744600Y-102791871D01*
X152744600Y-102791871D02*
X152744600Y-102887109D01*
X153744599Y-103410919D02*
X153173171Y-103410919D01*
X153458885Y-103410919D02*
X153458885Y-102410919D01*
X153458885Y-102410919D02*
X153363647Y-102553776D01*
X153363647Y-102553776D02*
X153268409Y-102649014D01*
X153268409Y-102649014D02*
X153173171Y-102696633D01*
D12*
X140682695Y-89970938D02*
X141349361Y-91970938D01*
X141349361Y-91970938D02*
X142016028Y-89970938D01*
X142968409Y-91970938D02*
X142777933Y-91875700D01*
X142777933Y-91875700D02*
X142682695Y-91780461D01*
X142682695Y-91780461D02*
X142587457Y-91589985D01*
X142587457Y-91589985D02*
X142587457Y-91018557D01*
X142587457Y-91018557D02*
X142682695Y-90828080D01*
X142682695Y-90828080D02*
X142777933Y-90732842D01*
X142777933Y-90732842D02*
X142968409Y-90637604D01*
X142968409Y-90637604D02*
X143254124Y-90637604D01*
X143254124Y-90637604D02*
X143444600Y-90732842D01*
X143444600Y-90732842D02*
X143539838Y-90828080D01*
X143539838Y-90828080D02*
X143635076Y-91018557D01*
X143635076Y-91018557D02*
X143635076Y-91589985D01*
X143635076Y-91589985D02*
X143539838Y-91780461D01*
X143539838Y-91780461D02*
X143444600Y-91875700D01*
X143444600Y-91875700D02*
X143254124Y-91970938D01*
X143254124Y-91970938D02*
X142968409Y-91970938D01*
X144492219Y-91970938D02*
X144492219Y-90637604D01*
X144492219Y-89970938D02*
X144396981Y-90066176D01*
X144396981Y-90066176D02*
X144492219Y-90161414D01*
X144492219Y-90161414D02*
X144587457Y-90066176D01*
X144587457Y-90066176D02*
X144492219Y-89970938D01*
X144492219Y-89970938D02*
X144492219Y-90161414D01*
X146301743Y-91970938D02*
X146301743Y-89970938D01*
X146301743Y-91875700D02*
X146111267Y-91970938D01*
X146111267Y-91970938D02*
X145730314Y-91970938D01*
X145730314Y-91970938D02*
X145539838Y-91875700D01*
X145539838Y-91875700D02*
X145444600Y-91780461D01*
X145444600Y-91780461D02*
X145349362Y-91589985D01*
X145349362Y-91589985D02*
X145349362Y-91018557D01*
X145349362Y-91018557D02*
X145444600Y-90828080D01*
X145444600Y-90828080D02*
X145539838Y-90732842D01*
X145539838Y-90732842D02*
X145730314Y-90637604D01*
X145730314Y-90637604D02*
X146111267Y-90637604D01*
X146111267Y-90637604D02*
X146301743Y-90732842D01*
X147158886Y-91875700D02*
X147444600Y-91970938D01*
X147444600Y-91970938D02*
X147920791Y-91970938D01*
X147920791Y-91970938D02*
X148111267Y-91875700D01*
X148111267Y-91875700D02*
X148206505Y-91780461D01*
X148206505Y-91780461D02*
X148301743Y-91589985D01*
X148301743Y-91589985D02*
X148301743Y-91399509D01*
X148301743Y-91399509D02*
X148206505Y-91209033D01*
X148206505Y-91209033D02*
X148111267Y-91113795D01*
X148111267Y-91113795D02*
X147920791Y-91018557D01*
X147920791Y-91018557D02*
X147539838Y-90923319D01*
X147539838Y-90923319D02*
X147349362Y-90828080D01*
X147349362Y-90828080D02*
X147254124Y-90732842D01*
X147254124Y-90732842D02*
X147158886Y-90542366D01*
X147158886Y-90542366D02*
X147158886Y-90351890D01*
X147158886Y-90351890D02*
X147254124Y-90161414D01*
X147254124Y-90161414D02*
X147349362Y-90066176D01*
X147349362Y-90066176D02*
X147539838Y-89970938D01*
X147539838Y-89970938D02*
X148016029Y-89970938D01*
X148016029Y-89970938D02*
X148301743Y-90066176D01*
X148968410Y-90637604D02*
X149349362Y-91970938D01*
X149349362Y-91970938D02*
X149730315Y-91018557D01*
X149730315Y-91018557D02*
X150111267Y-91970938D01*
X150111267Y-91970938D02*
X150492219Y-90637604D01*
X151254124Y-91970938D02*
X151254124Y-90637604D01*
X151254124Y-89970938D02*
X151158886Y-90066176D01*
X151158886Y-90066176D02*
X151254124Y-90161414D01*
X151254124Y-90161414D02*
X151349362Y-90066176D01*
X151349362Y-90066176D02*
X151254124Y-89970938D01*
X151254124Y-89970938D02*
X151254124Y-90161414D01*
X151920791Y-90637604D02*
X152682695Y-90637604D01*
X152206505Y-89970938D02*
X152206505Y-91685223D01*
X152206505Y-91685223D02*
X152301743Y-91875700D01*
X152301743Y-91875700D02*
X152492219Y-91970938D01*
X152492219Y-91970938D02*
X152682695Y-91970938D01*
X154206505Y-91875700D02*
X154016029Y-91970938D01*
X154016029Y-91970938D02*
X153635076Y-91970938D01*
X153635076Y-91970938D02*
X153444600Y-91875700D01*
X153444600Y-91875700D02*
X153349362Y-91780461D01*
X153349362Y-91780461D02*
X153254124Y-91589985D01*
X153254124Y-91589985D02*
X153254124Y-91018557D01*
X153254124Y-91018557D02*
X153349362Y-90828080D01*
X153349362Y-90828080D02*
X153444600Y-90732842D01*
X153444600Y-90732842D02*
X153635076Y-90637604D01*
X153635076Y-90637604D02*
X154016029Y-90637604D01*
X154016029Y-90637604D02*
X154206505Y-90732842D01*
X155063648Y-91970938D02*
X155063648Y-89970938D01*
X155920791Y-91970938D02*
X155920791Y-90923319D01*
X155920791Y-90923319D02*
X155825553Y-90732842D01*
X155825553Y-90732842D02*
X155635077Y-90637604D01*
X155635077Y-90637604D02*
X155349362Y-90637604D01*
X155349362Y-90637604D02*
X155158886Y-90732842D01*
X155158886Y-90732842D02*
X155063648Y-90828080D01*
D11*
%TO.C,U1*%
X152300002Y-98500000D02*
X152800001Y-98500000D01*
X152300002Y-101500000D02*
X152800001Y-101500000D01*
X152800001Y-99299999D02*
X152800001Y-98500000D01*
X152800001Y-101500000D02*
X152800001Y-100699999D01*
D13*
%TO.C,J4*%
X148676100Y-89252200D02*
X150123900Y-89252200D01*
X148676100Y-85797800D02*
X148676100Y-86787649D01*
X150123900Y-85797800D02*
X148676100Y-85797800D01*
X150123900Y-86787649D02*
X150123900Y-85797800D01*
D14*
X149781000Y-85162800D02*
G75*
G03*
X149781000Y-85162800I-381000J0D01*
G01*
%TO.C,J3*%
X148019100Y-108228800D02*
G75*
G03*
X148019100Y-108228800I-381000J0D01*
G01*
D13*
X146914200Y-106603951D02*
X146914200Y-107593800D01*
X146914200Y-107593800D02*
X148362000Y-107593800D01*
X148362000Y-107593800D02*
X148362000Y-106603951D01*
X148362000Y-104139400D02*
X146914200Y-104139400D01*
D14*
%TO.C,J2*%
X160318200Y-97465100D02*
G75*
G03*
X160318200Y-97465100I-381000J0D01*
G01*
D13*
X158312351Y-98189000D02*
X159302200Y-98189000D01*
X159302200Y-98189000D02*
X159302200Y-96741200D01*
X159302200Y-96741200D02*
X158312351Y-96741200D01*
X155847800Y-96741200D02*
X155847800Y-98189000D01*
%TO.C,J1*%
X140952200Y-97623900D02*
X140952200Y-96176100D01*
X137497800Y-97623900D02*
X138487649Y-97623900D01*
X137497800Y-96176100D02*
X137497800Y-97623900D01*
X138487649Y-96176100D02*
X137497800Y-96176100D01*
D14*
X137243800Y-96900000D02*
G75*
G03*
X137243800Y-96900000I-381000J0D01*
G01*
D15*
%TO.C,D1*%
X142650000Y-91450000D02*
X149950000Y-91450000D01*
X142650000Y-96950000D02*
X149950000Y-96950000D01*
X149950000Y-96950000D02*
X149950000Y-95800000D01*
%TO.C,AM0:1*%
X155429600Y-89673700D02*
X155429600Y-103643700D01*
X141459600Y-89673700D02*
X155429600Y-89673700D01*
X141459600Y-103643700D02*
X141459600Y-89673700D01*
X155429600Y-103643700D02*
X141459600Y-103643700D01*
D16*
X151938378Y-99908700D02*
G75*
G03*
X151938378Y-99908700I-243778J0D01*
G01*
%TD*%
M02*
