%TF.GenerationSoftware,KiCad,Pcbnew,7.0.5*%
%TF.CreationDate,2023-06-19T13:42:10-05:00*%
%TF.ProjectId,VoidSwitch,566f6964-5377-4697-9463-682e6b696361,rev?*%
%TF.SameCoordinates,Original*%
%TF.FileFunction,Copper,L1,Top*%
%TF.FilePolarity,Positive*%
%FSLAX46Y46*%
G04 Gerber Fmt 4.6, Leading zero omitted, Abs format (unit mm)*
G04 Created by KiCad (PCBNEW 7.0.5) date 2023-06-19 13:42:10*
%MOMM*%
%LPD*%
G01*
G04 APERTURE LIST*
%TA.AperFunction,ComponentPad*%
%ADD10C,3.600000*%
%TD*%
%TA.AperFunction,SMDPad,CuDef*%
%ADD11R,0.609600X1.193800*%
%TD*%
%TA.AperFunction,SMDPad,CuDef*%
%ADD12R,1.193800X0.609600*%
%TD*%
%TA.AperFunction,SMDPad,CuDef*%
%ADD13R,0.500000X0.500000*%
%TD*%
%TA.AperFunction,SMDPad,CuDef*%
%ADD14R,0.800001X0.549999*%
%TD*%
%TA.AperFunction,Conductor*%
%ADD15C,0.250000*%
%TD*%
G04 APERTURE END LIST*
D10*
%TO.P,,1,1*%
%TO.N,GND*%
X144900000Y-92200000D03*
%TD*%
%TO.P,GND,1,1*%
%TO.N,GND*%
X145100000Y-99900000D03*
%TD*%
D11*
%TO.P,GPIO,1,1*%
%TO.N,/GPIO*%
X148852999Y-88593500D03*
%TO.P,GPIO,2,2*%
X149952999Y-88593500D03*
%TD*%
%TO.P,+5V,1,1*%
%TO.N,+5V*%
X148036201Y-104700000D03*
%TO.P,+5V,2,2*%
X146936201Y-104700000D03*
%TD*%
D12*
%TO.P,DOUT,1,1*%
%TO.N,/DOUT*%
X156400000Y-97067099D03*
%TO.P,DOUT,2,2*%
X156400000Y-98167099D03*
%TD*%
%TO.P,DIN,1,1*%
%TO.N,/DIN*%
X140393600Y-96250301D03*
%TO.P,DIN,2,2*%
X140393600Y-95150301D03*
%TD*%
D13*
%TO.P,D1,1,VDD*%
%TO.N,+5V*%
X147950000Y-96450000D03*
%TO.P,D1,2,DOUT*%
%TO.N,/DOUT*%
X148850000Y-96450000D03*
%TO.P,D1,3,VSS*%
%TO.N,GND*%
X148850000Y-95550000D03*
%TO.P,D1,4,DIN*%
%TO.N,/DIN*%
X147950000Y-95550000D03*
%TD*%
D14*
%TO.P,HE,3,GND*%
%TO.N,GND*%
X150500000Y-99800000D03*
%TO.P,HE,2,OUT*%
%TO.N,/GPIO*%
X152700000Y-98850002D03*
%TO.P,HE,1,VCC*%
%TO.N,+5V*%
X152700000Y-100750001D03*
%TD*%
D15*
%TO.N,/GPIO*%
X152700000Y-90708800D02*
X150584700Y-88593500D01*
X152700000Y-98850000D02*
X152700000Y-90708800D01*
X150268900Y-88593500D02*
X150584700Y-88593500D01*
X150268900Y-88593500D02*
X149953000Y-88593500D01*
X149953000Y-88593500D02*
X148853000Y-88593500D01*
%TO.N,/DIN*%
X140393600Y-95150300D02*
X141317400Y-95150300D01*
X140393600Y-96250300D02*
X140393600Y-95618600D01*
X141317400Y-95550000D02*
X141317400Y-95150300D01*
X147950000Y-95550000D02*
X141317400Y-95550000D01*
X140462200Y-95550000D02*
X140393600Y-95618600D01*
X141317400Y-95550000D02*
X140462200Y-95550000D01*
%TO.N,/DOUT*%
X148850000Y-96450000D02*
X149426900Y-96450000D01*
X149426900Y-96738400D02*
X149426900Y-96450000D01*
X152140400Y-99451900D02*
X149426900Y-96738400D01*
X155746900Y-99451900D02*
X152140400Y-99451900D01*
X156400000Y-98798800D02*
X155746900Y-99451900D01*
X156400000Y-98482900D02*
X156400000Y-98798800D01*
X156400000Y-98482900D02*
X156400000Y-98167100D01*
X156400000Y-98167100D02*
X156400000Y-97067100D01*
%TO.N,+5V*%
X152016000Y-101351900D02*
X148667900Y-104700000D01*
X152700000Y-101351900D02*
X152016000Y-101351900D01*
X152700000Y-100750000D02*
X152700000Y-101351900D01*
X148036200Y-104700000D02*
X148667900Y-104700000D01*
X152098100Y-100148100D02*
X152700000Y-100148100D01*
X148976900Y-97026900D02*
X152098100Y-100148100D01*
X147950000Y-97026900D02*
X148976900Y-97026900D01*
X147950000Y-96450000D02*
X147950000Y-97026900D01*
X152700000Y-100750000D02*
X152700000Y-100148100D01*
X146936200Y-104700000D02*
X148036200Y-104700000D01*
%TD*%
%TA.AperFunction,Conductor*%
%TO.N,GND*%
G36*
X147142539Y-96195185D02*
G01*
X147188294Y-96247989D01*
X147199500Y-96299500D01*
X147199500Y-96747870D01*
X147199501Y-96747876D01*
X147205908Y-96807483D01*
X147256202Y-96942328D01*
X147256204Y-96942331D01*
X147300088Y-97000953D01*
X147323046Y-97062507D01*
X147324012Y-97062386D01*
X147326725Y-97083868D01*
X147327091Y-97087743D01*
X147330696Y-97145038D01*
X147333222Y-97152814D01*
X147338309Y-97175572D01*
X147339334Y-97183684D01*
X147339336Y-97183692D01*
X147360469Y-97237070D01*
X147361788Y-97240733D01*
X147379532Y-97295340D01*
X147383907Y-97302233D01*
X147394503Y-97323029D01*
X147397511Y-97330626D01*
X147397513Y-97330631D01*
X147431265Y-97377087D01*
X147433455Y-97380309D01*
X147464213Y-97428776D01*
X147470164Y-97434364D01*
X147485604Y-97451878D01*
X147490403Y-97458485D01*
X147534647Y-97495087D01*
X147537567Y-97497661D01*
X147579418Y-97536962D01*
X147586578Y-97540898D01*
X147605879Y-97554014D01*
X147612177Y-97559224D01*
X147612178Y-97559224D01*
X147612179Y-97559225D01*
X147664125Y-97583669D01*
X147667597Y-97585438D01*
X147717903Y-97613095D01*
X147717905Y-97613095D01*
X147717908Y-97613097D01*
X147722321Y-97614230D01*
X147725814Y-97615127D01*
X147747777Y-97623033D01*
X147755174Y-97626514D01*
X147811576Y-97637273D01*
X147815362Y-97638119D01*
X147870981Y-97652400D01*
X147879153Y-97652400D01*
X147902385Y-97654596D01*
X147903989Y-97654901D01*
X147910412Y-97656127D01*
X147967724Y-97652521D01*
X147971597Y-97652400D01*
X148666448Y-97652400D01*
X148733487Y-97672085D01*
X148754129Y-97688719D01*
X149932073Y-98866663D01*
X149965558Y-98927986D01*
X149960574Y-98997678D01*
X149918702Y-99053611D01*
X149887726Y-99070526D01*
X149857910Y-99081646D01*
X149857905Y-99081649D01*
X149742811Y-99167809D01*
X149742808Y-99167812D01*
X149656648Y-99282906D01*
X149656644Y-99282913D01*
X149606402Y-99417620D01*
X149606400Y-99417627D01*
X149599999Y-99477155D01*
X149599999Y-99550000D01*
X150564046Y-99550000D01*
X150631085Y-99569685D01*
X150651727Y-99586318D01*
X150713681Y-99648272D01*
X150747166Y-99709594D01*
X150750000Y-99735953D01*
X150750000Y-100575000D01*
X150947829Y-100575000D01*
X150947845Y-100574999D01*
X151007373Y-100568598D01*
X151007380Y-100568596D01*
X151142087Y-100518354D01*
X151142094Y-100518350D01*
X151257187Y-100432191D01*
X151274350Y-100409264D01*
X151330283Y-100367391D01*
X151399975Y-100362405D01*
X151461298Y-100395889D01*
X151597297Y-100531888D01*
X151607122Y-100544151D01*
X151607343Y-100543969D01*
X151612311Y-100549974D01*
X151662032Y-100596666D01*
X151663432Y-100598023D01*
X151683623Y-100618215D01*
X151683627Y-100618218D01*
X151683629Y-100618220D01*
X151689115Y-100622475D01*
X151693542Y-100626256D01*
X151696421Y-100628960D01*
X151731805Y-100689207D01*
X151729000Y-100759021D01*
X151688896Y-100816235D01*
X151684401Y-100819659D01*
X151674562Y-100826806D01*
X151669681Y-100830013D01*
X151629580Y-100853728D01*
X151615408Y-100867900D01*
X151600623Y-100880528D01*
X151584412Y-100892307D01*
X151554709Y-100928210D01*
X151550777Y-100932531D01*
X148796945Y-103686362D01*
X148735622Y-103719847D01*
X148665930Y-103714863D01*
X148634952Y-103697947D01*
X148583332Y-103659304D01*
X148583329Y-103659302D01*
X148448487Y-103609010D01*
X148448486Y-103609009D01*
X148448484Y-103609009D01*
X148388874Y-103602600D01*
X148388864Y-103602600D01*
X147683530Y-103602600D01*
X147683524Y-103602601D01*
X147623917Y-103609008D01*
X147529534Y-103644212D01*
X147459843Y-103649196D01*
X147442868Y-103644212D01*
X147348487Y-103609010D01*
X147348486Y-103609009D01*
X147348484Y-103609009D01*
X147288874Y-103602600D01*
X147288864Y-103602600D01*
X146583530Y-103602600D01*
X146583524Y-103602601D01*
X146523917Y-103609008D01*
X146389072Y-103659302D01*
X146389065Y-103659306D01*
X146273856Y-103745552D01*
X146273853Y-103745555D01*
X146187607Y-103860764D01*
X146187603Y-103860771D01*
X146137309Y-103995617D01*
X146130902Y-104055216D01*
X146130901Y-104055235D01*
X146130901Y-105344770D01*
X146130902Y-105344776D01*
X146137309Y-105404383D01*
X146184970Y-105532167D01*
X146189954Y-105601859D01*
X146156469Y-105663182D01*
X146095145Y-105696666D01*
X146068788Y-105699500D01*
X139524500Y-105699500D01*
X139457461Y-105679815D01*
X139411706Y-105627011D01*
X139400500Y-105575500D01*
X139400500Y-99899999D01*
X142795065Y-99899999D01*
X142814784Y-100200852D01*
X142814786Y-100200864D01*
X142873602Y-100496553D01*
X142873607Y-100496573D01*
X142970514Y-100782052D01*
X142970518Y-100782062D01*
X143103868Y-101052469D01*
X143271371Y-101303155D01*
X143271374Y-101303159D01*
X143304973Y-101341470D01*
X143304974Y-101341470D01*
X144238348Y-100408096D01*
X144305146Y-100515263D01*
X144445268Y-100662671D01*
X144590085Y-100763467D01*
X143658528Y-101695024D01*
X143658528Y-101695025D01*
X143696840Y-101728625D01*
X143696844Y-101728628D01*
X143947530Y-101896131D01*
X144217937Y-102029481D01*
X144217947Y-102029485D01*
X144503426Y-102126392D01*
X144503446Y-102126397D01*
X144799135Y-102185213D01*
X144799147Y-102185215D01*
X145099999Y-102204934D01*
X145400852Y-102185215D01*
X145400864Y-102185213D01*
X145696553Y-102126397D01*
X145696573Y-102126392D01*
X145982052Y-102029485D01*
X145982062Y-102029481D01*
X146252469Y-101896131D01*
X146503157Y-101728627D01*
X146541470Y-101695025D01*
X146541470Y-101695023D01*
X145608125Y-100761678D01*
X145674214Y-100724996D01*
X145828531Y-100592520D01*
X145953021Y-100431692D01*
X145963625Y-100410072D01*
X146895023Y-101341470D01*
X146895025Y-101341470D01*
X146928627Y-101303157D01*
X147096131Y-101052469D01*
X147229481Y-100782062D01*
X147229485Y-100782052D01*
X147326392Y-100496573D01*
X147326397Y-100496553D01*
X147385213Y-100200864D01*
X147385215Y-100200852D01*
X147395102Y-100050000D01*
X149599999Y-100050000D01*
X149599999Y-100122844D01*
X149606400Y-100182372D01*
X149606402Y-100182379D01*
X149656644Y-100317086D01*
X149656648Y-100317093D01*
X149742808Y-100432187D01*
X149742811Y-100432190D01*
X149857905Y-100518350D01*
X149857912Y-100518354D01*
X149992619Y-100568596D01*
X149992626Y-100568598D01*
X150052154Y-100574999D01*
X150052171Y-100575000D01*
X150250000Y-100575000D01*
X150250000Y-100050000D01*
X149599999Y-100050000D01*
X147395102Y-100050000D01*
X147404934Y-99899999D01*
X147385215Y-99599147D01*
X147385213Y-99599135D01*
X147326397Y-99303446D01*
X147326393Y-99303431D01*
X147229483Y-99017944D01*
X147229474Y-99017923D01*
X147096129Y-98747528D01*
X146928633Y-98496851D01*
X146928625Y-98496840D01*
X146895025Y-98458528D01*
X146895024Y-98458528D01*
X145961650Y-99391901D01*
X145894854Y-99284737D01*
X145754732Y-99137329D01*
X145609913Y-99036532D01*
X146541470Y-98104974D01*
X146541470Y-98104973D01*
X146503159Y-98071374D01*
X146503155Y-98071371D01*
X146252469Y-97903868D01*
X145982062Y-97770518D01*
X145982052Y-97770514D01*
X145696573Y-97673607D01*
X145696553Y-97673602D01*
X145400864Y-97614786D01*
X145400852Y-97614784D01*
X145099999Y-97595065D01*
X144799147Y-97614784D01*
X144799135Y-97614786D01*
X144503446Y-97673602D01*
X144503431Y-97673606D01*
X144217944Y-97770516D01*
X144217923Y-97770525D01*
X143947528Y-97903870D01*
X143696844Y-98071370D01*
X143696837Y-98071376D01*
X143658528Y-98104972D01*
X143658527Y-98104974D01*
X144591875Y-99038321D01*
X144525786Y-99075004D01*
X144371469Y-99207480D01*
X144246979Y-99368308D01*
X144236374Y-99389927D01*
X143304974Y-98458527D01*
X143304972Y-98458528D01*
X143271376Y-98496837D01*
X143271370Y-98496844D01*
X143103870Y-98747528D01*
X142970525Y-99017923D01*
X142970516Y-99017944D01*
X142873606Y-99303431D01*
X142873602Y-99303446D01*
X142814786Y-99599135D01*
X142814784Y-99599147D01*
X142795065Y-99899999D01*
X139400500Y-99899999D01*
X139400500Y-97120101D01*
X139420185Y-97053062D01*
X139472989Y-97007307D01*
X139542147Y-96997363D01*
X139567833Y-97003919D01*
X139689217Y-97049192D01*
X139689216Y-97049192D01*
X139696144Y-97049936D01*
X139748827Y-97055601D01*
X141038372Y-97055600D01*
X141097983Y-97049192D01*
X141232831Y-96998897D01*
X141348046Y-96912647D01*
X141434296Y-96797432D01*
X141484591Y-96662584D01*
X141491000Y-96602974D01*
X141490999Y-96299499D01*
X141510683Y-96232461D01*
X141563487Y-96186706D01*
X141614999Y-96175500D01*
X147075500Y-96175500D01*
X147142539Y-96195185D01*
G37*
%TD.AperFunction*%
%TA.AperFunction,Conductor*%
G36*
X148050201Y-87620185D02*
G01*
X148095956Y-87672989D01*
X148105900Y-87742147D01*
X148099344Y-87767833D01*
X148054107Y-87889117D01*
X148047700Y-87948716D01*
X148047699Y-87948735D01*
X148047699Y-89238270D01*
X148047700Y-89238276D01*
X148054107Y-89297883D01*
X148104401Y-89432728D01*
X148104405Y-89432735D01*
X148190651Y-89547944D01*
X148190654Y-89547947D01*
X148305863Y-89634193D01*
X148305870Y-89634197D01*
X148332969Y-89644304D01*
X148440716Y-89684491D01*
X148500326Y-89690900D01*
X149205671Y-89690899D01*
X149265282Y-89684491D01*
X149359666Y-89649287D01*
X149429357Y-89644304D01*
X149446330Y-89649287D01*
X149540716Y-89684491D01*
X149600326Y-89690900D01*
X150305671Y-89690899D01*
X150365282Y-89684491D01*
X150500130Y-89634196D01*
X150551754Y-89595549D01*
X150617215Y-89571132D01*
X150685488Y-89585982D01*
X150713744Y-89607135D01*
X152038182Y-90931572D01*
X152071666Y-90992893D01*
X152074500Y-91019251D01*
X152074500Y-98056536D01*
X152054815Y-98123575D01*
X152024811Y-98155803D01*
X151941595Y-98218098D01*
X151876130Y-98242515D01*
X151807857Y-98227663D01*
X151779603Y-98206512D01*
X150088819Y-96515728D01*
X150055334Y-96454405D01*
X150052745Y-96435833D01*
X150052521Y-96432280D01*
X150052400Y-96428402D01*
X150052400Y-96410650D01*
X150050170Y-96393002D01*
X150049810Y-96389191D01*
X150046204Y-96331862D01*
X150043679Y-96324092D01*
X150038587Y-96301314D01*
X150037564Y-96293208D01*
X150016420Y-96239806D01*
X150015111Y-96236170D01*
X149997367Y-96181559D01*
X149992989Y-96174661D01*
X149982395Y-96153868D01*
X149979386Y-96146268D01*
X149945636Y-96099815D01*
X149943445Y-96096592D01*
X149912685Y-96048122D01*
X149906734Y-96042534D01*
X149891298Y-96025025D01*
X149886494Y-96018413D01*
X149886491Y-96018411D01*
X149886491Y-96018410D01*
X149842261Y-95981820D01*
X149839338Y-95979243D01*
X149797485Y-95939940D01*
X149797477Y-95939934D01*
X149790315Y-95935997D01*
X149771014Y-95922880D01*
X149764724Y-95917676D01*
X149712778Y-95893232D01*
X149709306Y-95891463D01*
X149664262Y-95866700D01*
X149614998Y-95817153D01*
X149614265Y-95814265D01*
X149600000Y-95800000D01*
X149442107Y-95800000D01*
X149375068Y-95780315D01*
X149367796Y-95775267D01*
X149342331Y-95756204D01*
X149342328Y-95756202D01*
X149207482Y-95705908D01*
X149207483Y-95705908D01*
X149147883Y-95699501D01*
X149147881Y-95699500D01*
X149147873Y-95699500D01*
X149147865Y-95699500D01*
X148824499Y-95699500D01*
X148757460Y-95679815D01*
X148711705Y-95627011D01*
X148700499Y-95575500D01*
X148700499Y-95252129D01*
X148700498Y-95252123D01*
X148694091Y-95192516D01*
X148643797Y-95057671D01*
X148643795Y-95057668D01*
X148624733Y-95032204D01*
X148600316Y-94966739D01*
X148600000Y-94957893D01*
X148600000Y-94800000D01*
X149100000Y-94800000D01*
X149100000Y-95300000D01*
X149600000Y-95300000D01*
X149600000Y-95252172D01*
X149599999Y-95252155D01*
X149593598Y-95192627D01*
X149593596Y-95192620D01*
X149543354Y-95057913D01*
X149543350Y-95057906D01*
X149457190Y-94942812D01*
X149457187Y-94942809D01*
X149342093Y-94856649D01*
X149342086Y-94856645D01*
X149207379Y-94806403D01*
X149207372Y-94806401D01*
X149147844Y-94800000D01*
X149100000Y-94800000D01*
X148600000Y-94800000D01*
X148552155Y-94800000D01*
X148492627Y-94806401D01*
X148492623Y-94806402D01*
X148444046Y-94824520D01*
X148374354Y-94829503D01*
X148357382Y-94824519D01*
X148307488Y-94805910D01*
X148307484Y-94805909D01*
X148307483Y-94805909D01*
X148247873Y-94799500D01*
X148247863Y-94799500D01*
X147652129Y-94799500D01*
X147652123Y-94799501D01*
X147592516Y-94805908D01*
X147457671Y-94856202D01*
X147457668Y-94856204D01*
X147399476Y-94899767D01*
X147334011Y-94924184D01*
X147325165Y-94924500D01*
X141985011Y-94924500D01*
X141917972Y-94904815D01*
X141872217Y-94852011D01*
X141869943Y-94846672D01*
X141869888Y-94846575D01*
X141869886Y-94846568D01*
X141836136Y-94800115D01*
X141833945Y-94796892D01*
X141803185Y-94748422D01*
X141797234Y-94742834D01*
X141781798Y-94725325D01*
X141776994Y-94718713D01*
X141776991Y-94718711D01*
X141776991Y-94718710D01*
X141732761Y-94682120D01*
X141729838Y-94679543D01*
X141687985Y-94640240D01*
X141687977Y-94640234D01*
X141680815Y-94636297D01*
X141661514Y-94623180D01*
X141655224Y-94617976D01*
X141603278Y-94593532D01*
X141599817Y-94591769D01*
X141549492Y-94564103D01*
X141549489Y-94564102D01*
X141549485Y-94564100D01*
X141541574Y-94562069D01*
X141519622Y-94554166D01*
X141512225Y-94550685D01*
X141512221Y-94550684D01*
X141455844Y-94539929D01*
X141452043Y-94539080D01*
X141412956Y-94529045D01*
X141354371Y-94494172D01*
X141354318Y-94494226D01*
X141354108Y-94494016D01*
X141352918Y-94493308D01*
X141350485Y-94490393D01*
X141348049Y-94487957D01*
X141265815Y-94426397D01*
X141232831Y-94401705D01*
X141232829Y-94401704D01*
X141232828Y-94401703D01*
X141097982Y-94351409D01*
X141097983Y-94351409D01*
X141038383Y-94345002D01*
X141038381Y-94345001D01*
X141038373Y-94345001D01*
X141038364Y-94345001D01*
X139748829Y-94345001D01*
X139748823Y-94345002D01*
X139689215Y-94351410D01*
X139567832Y-94396682D01*
X139498140Y-94401666D01*
X139436818Y-94368180D01*
X139403333Y-94306857D01*
X139400500Y-94280500D01*
X139400500Y-92200000D01*
X142595065Y-92200000D01*
X142614784Y-92500852D01*
X142614786Y-92500864D01*
X142673602Y-92796553D01*
X142673607Y-92796573D01*
X142770514Y-93082052D01*
X142770518Y-93082062D01*
X142903868Y-93352469D01*
X143071371Y-93603155D01*
X143071374Y-93603159D01*
X143104973Y-93641470D01*
X143104974Y-93641470D01*
X144038348Y-92708096D01*
X144105146Y-92815263D01*
X144245268Y-92962671D01*
X144390085Y-93063467D01*
X143458528Y-93995024D01*
X143458528Y-93995025D01*
X143496840Y-94028625D01*
X143496844Y-94028628D01*
X143747530Y-94196131D01*
X144017937Y-94329481D01*
X144017947Y-94329485D01*
X144303426Y-94426392D01*
X144303446Y-94426397D01*
X144599135Y-94485213D01*
X144599147Y-94485215D01*
X144899999Y-94504934D01*
X145200852Y-94485215D01*
X145200864Y-94485213D01*
X145496553Y-94426397D01*
X145496573Y-94426392D01*
X145782052Y-94329485D01*
X145782062Y-94329481D01*
X146052469Y-94196131D01*
X146303157Y-94028627D01*
X146341470Y-93995025D01*
X146341470Y-93995023D01*
X145408125Y-93061678D01*
X145474214Y-93024996D01*
X145628531Y-92892520D01*
X145753021Y-92731692D01*
X145763625Y-92710072D01*
X146695023Y-93641470D01*
X146695025Y-93641470D01*
X146728627Y-93603157D01*
X146896131Y-93352469D01*
X147029481Y-93082062D01*
X147029485Y-93082052D01*
X147126392Y-92796573D01*
X147126397Y-92796553D01*
X147185213Y-92500864D01*
X147185215Y-92500852D01*
X147204934Y-92199999D01*
X147185215Y-91899147D01*
X147185213Y-91899135D01*
X147126397Y-91603446D01*
X147126393Y-91603431D01*
X147029483Y-91317944D01*
X147029474Y-91317923D01*
X146896129Y-91047528D01*
X146728633Y-90796851D01*
X146728625Y-90796840D01*
X146695025Y-90758528D01*
X146695024Y-90758528D01*
X145761650Y-91691901D01*
X145694854Y-91584737D01*
X145554732Y-91437329D01*
X145409913Y-91336532D01*
X146341470Y-90404974D01*
X146341470Y-90404973D01*
X146303159Y-90371374D01*
X146303155Y-90371371D01*
X146052469Y-90203868D01*
X145782062Y-90070518D01*
X145782052Y-90070514D01*
X145496573Y-89973607D01*
X145496553Y-89973602D01*
X145200864Y-89914786D01*
X145200852Y-89914784D01*
X144899999Y-89895065D01*
X144599147Y-89914784D01*
X144599135Y-89914786D01*
X144303446Y-89973602D01*
X144303431Y-89973606D01*
X144017944Y-90070516D01*
X144017923Y-90070525D01*
X143747528Y-90203870D01*
X143496844Y-90371370D01*
X143496837Y-90371376D01*
X143458528Y-90404972D01*
X143458527Y-90404974D01*
X144391875Y-91338321D01*
X144325786Y-91375004D01*
X144171469Y-91507480D01*
X144046979Y-91668308D01*
X144036374Y-91689926D01*
X143104974Y-90758527D01*
X143104972Y-90758528D01*
X143071376Y-90796837D01*
X143071370Y-90796844D01*
X142903870Y-91047528D01*
X142770525Y-91317923D01*
X142770516Y-91317944D01*
X142673606Y-91603431D01*
X142673602Y-91603446D01*
X142614786Y-91899135D01*
X142614784Y-91899147D01*
X142595065Y-92200000D01*
X139400500Y-92200000D01*
X139400500Y-87724500D01*
X139420185Y-87657461D01*
X139472989Y-87611706D01*
X139524500Y-87600500D01*
X147983162Y-87600500D01*
X148050201Y-87620185D01*
G37*
%TD.AperFunction*%
%TD*%
M02*
