%TF.GenerationSoftware,KiCad,Pcbnew,7.0.5*%
%TF.CreationDate,2023-06-19T13:42:10-05:00*%
%TF.ProjectId,VoidSwitch,566f6964-5377-4697-9463-682e6b696361,rev?*%
%TF.SameCoordinates,Original*%
%TF.FileFunction,Copper,L2,Bot*%
%TF.FilePolarity,Positive*%
%FSLAX46Y46*%
G04 Gerber Fmt 4.6, Leading zero omitted, Abs format (unit mm)*
G04 Created by KiCad (PCBNEW 7.0.5) date 2023-06-19 13:42:10*
%MOMM*%
%LPD*%
G01*
G04 APERTURE LIST*
%TA.AperFunction,ComponentPad*%
%ADD10C,3.600000*%
%TD*%
G04 APERTURE END LIST*
D10*
%TO.P,,1,1*%
%TO.N,GND*%
X144900000Y-92200000D03*
%TD*%
%TO.P,GND,1,1*%
%TO.N,GND*%
X145100000Y-99900000D03*
%TD*%
%TA.AperFunction,Conductor*%
%TO.N,GND*%
G36*
X157342539Y-87620185D02*
G01*
X157388294Y-87672989D01*
X157399500Y-87724500D01*
X157399500Y-105575500D01*
X157379815Y-105642539D01*
X157327011Y-105688294D01*
X157275500Y-105699500D01*
X139524500Y-105699500D01*
X139457461Y-105679815D01*
X139411706Y-105627011D01*
X139400500Y-105575500D01*
X139400500Y-99899999D01*
X142795065Y-99899999D01*
X142814784Y-100200852D01*
X142814786Y-100200864D01*
X142873602Y-100496553D01*
X142873607Y-100496573D01*
X142970514Y-100782052D01*
X142970518Y-100782062D01*
X143103868Y-101052469D01*
X143271371Y-101303155D01*
X143271374Y-101303159D01*
X143304973Y-101341470D01*
X143304974Y-101341470D01*
X144238348Y-100408096D01*
X144305146Y-100515263D01*
X144445268Y-100662671D01*
X144590085Y-100763467D01*
X143658528Y-101695024D01*
X143658528Y-101695025D01*
X143696840Y-101728625D01*
X143696844Y-101728628D01*
X143947530Y-101896131D01*
X144217937Y-102029481D01*
X144217947Y-102029485D01*
X144503426Y-102126392D01*
X144503446Y-102126397D01*
X144799135Y-102185213D01*
X144799147Y-102185215D01*
X145099999Y-102204934D01*
X145400852Y-102185215D01*
X145400864Y-102185213D01*
X145696553Y-102126397D01*
X145696573Y-102126392D01*
X145982052Y-102029485D01*
X145982062Y-102029481D01*
X146252469Y-101896131D01*
X146503157Y-101728627D01*
X146541470Y-101695025D01*
X146541470Y-101695023D01*
X145608125Y-100761678D01*
X145674214Y-100724996D01*
X145828531Y-100592520D01*
X145953021Y-100431692D01*
X145963625Y-100410072D01*
X146895023Y-101341470D01*
X146895025Y-101341470D01*
X146928627Y-101303157D01*
X147096131Y-101052469D01*
X147229481Y-100782062D01*
X147229485Y-100782052D01*
X147326392Y-100496573D01*
X147326397Y-100496553D01*
X147385213Y-100200864D01*
X147385215Y-100200852D01*
X147404934Y-99899999D01*
X147385215Y-99599147D01*
X147385213Y-99599135D01*
X147326397Y-99303446D01*
X147326393Y-99303431D01*
X147229483Y-99017944D01*
X147229474Y-99017923D01*
X147096129Y-98747528D01*
X146928633Y-98496851D01*
X146928625Y-98496840D01*
X146895025Y-98458528D01*
X146895024Y-98458528D01*
X145961650Y-99391901D01*
X145894854Y-99284737D01*
X145754732Y-99137329D01*
X145609913Y-99036532D01*
X146541470Y-98104974D01*
X146541470Y-98104973D01*
X146503159Y-98071374D01*
X146503155Y-98071371D01*
X146252469Y-97903868D01*
X145982062Y-97770518D01*
X145982052Y-97770514D01*
X145696573Y-97673607D01*
X145696553Y-97673602D01*
X145400864Y-97614786D01*
X145400852Y-97614784D01*
X145099999Y-97595065D01*
X144799147Y-97614784D01*
X144799135Y-97614786D01*
X144503446Y-97673602D01*
X144503431Y-97673606D01*
X144217944Y-97770516D01*
X144217923Y-97770525D01*
X143947528Y-97903870D01*
X143696844Y-98071370D01*
X143696837Y-98071376D01*
X143658528Y-98104972D01*
X143658527Y-98104974D01*
X144591875Y-99038321D01*
X144525786Y-99075004D01*
X144371469Y-99207480D01*
X144246979Y-99368308D01*
X144236374Y-99389927D01*
X143304974Y-98458527D01*
X143304972Y-98458528D01*
X143271376Y-98496837D01*
X143271370Y-98496844D01*
X143103870Y-98747528D01*
X142970525Y-99017923D01*
X142970516Y-99017944D01*
X142873606Y-99303431D01*
X142873602Y-99303446D01*
X142814786Y-99599135D01*
X142814784Y-99599147D01*
X142795065Y-99899999D01*
X139400500Y-99899999D01*
X139400500Y-92200000D01*
X142595065Y-92200000D01*
X142614784Y-92500852D01*
X142614786Y-92500864D01*
X142673602Y-92796553D01*
X142673607Y-92796573D01*
X142770514Y-93082052D01*
X142770518Y-93082062D01*
X142903868Y-93352469D01*
X143071371Y-93603155D01*
X143071374Y-93603159D01*
X143104973Y-93641470D01*
X143104974Y-93641470D01*
X144038348Y-92708096D01*
X144105146Y-92815263D01*
X144245268Y-92962671D01*
X144390085Y-93063467D01*
X143458528Y-93995024D01*
X143458528Y-93995025D01*
X143496840Y-94028625D01*
X143496844Y-94028628D01*
X143747530Y-94196131D01*
X144017937Y-94329481D01*
X144017947Y-94329485D01*
X144303426Y-94426392D01*
X144303446Y-94426397D01*
X144599135Y-94485213D01*
X144599147Y-94485215D01*
X144899999Y-94504934D01*
X145200852Y-94485215D01*
X145200864Y-94485213D01*
X145496553Y-94426397D01*
X145496573Y-94426392D01*
X145782052Y-94329485D01*
X145782062Y-94329481D01*
X146052469Y-94196131D01*
X146303157Y-94028627D01*
X146341470Y-93995025D01*
X146341470Y-93995023D01*
X145408125Y-93061678D01*
X145474214Y-93024996D01*
X145628531Y-92892520D01*
X145753021Y-92731692D01*
X145763625Y-92710072D01*
X146695023Y-93641470D01*
X146695025Y-93641470D01*
X146728627Y-93603157D01*
X146896131Y-93352469D01*
X147029481Y-93082062D01*
X147029485Y-93082052D01*
X147126392Y-92796573D01*
X147126397Y-92796553D01*
X147185213Y-92500864D01*
X147185215Y-92500852D01*
X147204934Y-92199999D01*
X147185215Y-91899147D01*
X147185213Y-91899135D01*
X147126397Y-91603446D01*
X147126393Y-91603431D01*
X147029483Y-91317944D01*
X147029474Y-91317923D01*
X146896129Y-91047528D01*
X146728633Y-90796851D01*
X146728625Y-90796840D01*
X146695025Y-90758528D01*
X146695024Y-90758528D01*
X145761650Y-91691901D01*
X145694854Y-91584737D01*
X145554732Y-91437329D01*
X145409913Y-91336532D01*
X146341470Y-90404974D01*
X146341470Y-90404973D01*
X146303159Y-90371374D01*
X146303155Y-90371371D01*
X146052469Y-90203868D01*
X145782062Y-90070518D01*
X145782052Y-90070514D01*
X145496573Y-89973607D01*
X145496553Y-89973602D01*
X145200864Y-89914786D01*
X145200852Y-89914784D01*
X144899999Y-89895065D01*
X144599147Y-89914784D01*
X144599135Y-89914786D01*
X144303446Y-89973602D01*
X144303431Y-89973606D01*
X144017944Y-90070516D01*
X144017923Y-90070525D01*
X143747528Y-90203870D01*
X143496844Y-90371370D01*
X143496837Y-90371376D01*
X143458528Y-90404972D01*
X143458527Y-90404974D01*
X144391875Y-91338321D01*
X144325786Y-91375004D01*
X144171469Y-91507480D01*
X144046979Y-91668308D01*
X144036374Y-91689926D01*
X143104974Y-90758527D01*
X143104972Y-90758528D01*
X143071376Y-90796837D01*
X143071370Y-90796844D01*
X142903870Y-91047528D01*
X142770525Y-91317923D01*
X142770516Y-91317944D01*
X142673606Y-91603431D01*
X142673602Y-91603446D01*
X142614786Y-91899135D01*
X142614784Y-91899147D01*
X142595065Y-92200000D01*
X139400500Y-92200000D01*
X139400500Y-87724500D01*
X139420185Y-87657461D01*
X139472989Y-87611706D01*
X139524500Y-87600500D01*
X157275500Y-87600500D01*
X157342539Y-87620185D01*
G37*
%TD.AperFunction*%
%TD*%
M02*
